<svg version="1.1" xmlns="http://www.w3.org/2000/svg" xmlns:xlink="http://www.w3.org/1999/xlink" width="948" height="620"><defs/><g><g><path fill="none" stroke="#000000" paint-order="fill stroke markers" d=" M 130 10 L 938 10 L 938 610 L 130 610 L 130 10" stroke-miterlimit="10" stroke-dasharray=""/></g><g><path fill="#ffffff" stroke="none" paint-order="stroke fill markers" d=" M 130 10 L 130 33 L 259.4326171875 33 L 270.9326171875 21.5 L 270.9326171875 10 L 130 10"/></g><g><path fill="none" stroke="#000000" paint-order="fill stroke markers" d=" M 130 10 L 130 33 L 259.4326171875 33 L 270.9326171875 21.5 L 270.9326171875 10 L 130 10 L 130 10" stroke-miterlimit="10" stroke-dasharray=""/></g><g><g><path fill="none" stroke="none"/><text fill="#000000" stroke="none" font-family="Arial" font-size="13px" font-style="normal" font-weight="normal" text-decoration="undefined" x="346.581298828125" y="59.5" text-anchor="middle" dominant-baseline="central" transform="matrix(1 0 0 1 -142 -38)">App ImmoPredict</text></g></g><g><g><path fill="none" stroke="none"/><text fill="#000000" stroke="none" font-family="Arial" font-size="13px" font-style="normal" font-weight="bold" text-decoration="undefined" x="283.864990234375" y="59.5" text-anchor="middle" dominant-baseline="central" transform="matrix(1 0 0 1 -142 -38)">uc</text></g></g><g><path fill="#ffffff" stroke="none" paint-order="stroke fill markers" d=" M 51.884365234375 515.85 C 51.884365234375 510.96227952000004 55.842167602374985 507 60.724365234375 507 C 65.60656286637501 507 69.564365234375 510.96227952000004 69.564365234375 515.85 C 69.564365234375 520.73772048 65.60656286637501 524.7 60.724365234375 524.7 C 55.842167602374985 524.7 51.884365234375 520.73772048 51.884365234375 515.85 Z"/></g><g><path fill="none" stroke="#000000" paint-order="fill stroke markers" d=" M 51.884365234375 515.85 C 51.884365234375 510.96227952000004 55.842167602374985 507 60.724365234375 507 C 65.60656286637501 507 69.564365234375 510.96227952000004 69.564365234375 515.85 C 69.564365234375 520.73772048 65.60656286637501 524.7 60.724365234375 524.7 C 55.842167602374985 524.7 51.884365234375 520.73772048 51.884365234375 515.85 Z" stroke-miterlimit="10" stroke-dasharray=""/></g><g><path fill="none" stroke="#000000" paint-order="fill stroke markers" d=" M 60.724365234375 524.7 L 60.724365234375 542.3" stroke-miterlimit="10" stroke-dasharray=""/></g><g><path fill="none" stroke="#000000" paint-order="fill stroke markers" d=" M 51.364365234374986 531.3 L 70.08436523437501 531.3" stroke-miterlimit="10" stroke-dasharray=""/></g><g><path fill="none" stroke="#000000" paint-order="fill stroke markers" d=" M 60.724365234375 542.3 L 47.724365234375 560" stroke-miterlimit="10" stroke-dasharray=""/></g><g><path fill="none" stroke="#000000" paint-order="fill stroke markers" d=" M 60.724365234375 542.3 L 73.724365234375 560" stroke-miterlimit="10" stroke-dasharray=""/></g><g><g><path fill="none" stroke="none"/><text fill="#000000" stroke="none" font-family="Arial" font-size="13px" font-style="normal" font-weight="bold" text-decoration="undefined" x="203.224365234375" y="612.5" text-anchor="middle" dominant-baseline="central" transform="matrix(1 0 0 1 -142 -38)">Visiteur</text></g></g><g><path fill="#ffffff" stroke="none" paint-order="stroke fill markers" d=" M 51.945888671875 307.85 C 51.945888671875 302.96227952000004 55.903691039874985 299 60.785888671875 299 C 65.66808630387501 299 69.625888671875 302.96227952000004 69.625888671875 307.85 C 69.625888671875 312.73772048 65.66808630387501 316.7 60.785888671875 316.7 C 55.903691039874985 316.7 51.945888671875 312.73772048 51.945888671875 307.85 Z"/></g><g><path fill="none" stroke="#000000" paint-order="fill stroke markers" d=" M 51.945888671875 307.85 C 51.945888671875 302.96227952000004 55.903691039874985 299 60.785888671875 299 C 65.66808630387501 299 69.625888671875 302.96227952000004 69.625888671875 307.85 C 69.625888671875 312.73772048 65.66808630387501 316.7 60.785888671875 316.7 C 55.903691039874985 316.7 51.945888671875 312.73772048 51.945888671875 307.85 Z" stroke-miterlimit="10" stroke-dasharray=""/></g><g><path fill="none" stroke="#000000" paint-order="fill stroke markers" d=" M 60.785888671875 316.7 L 60.785888671875 334.3" stroke-miterlimit="10" stroke-dasharray=""/></g><g><path fill="none" stroke="#000000" paint-order="fill stroke markers" d=" M 51.425888671874986 323.3 L 70.14588867187501 323.3" stroke-miterlimit="10" stroke-dasharray=""/></g><g><path fill="none" stroke="#000000" paint-order="fill stroke markers" d=" M 60.785888671875 334.3 L 47.785888671875 352" stroke-miterlimit="10" stroke-dasharray=""/></g><g><path fill="none" stroke="#000000" paint-order="fill stroke markers" d=" M 60.785888671875 334.3 L 73.785888671875 352" stroke-miterlimit="10" stroke-dasharray=""/></g><g><g><path fill="none" stroke="none"/><text fill="#000000" stroke="none" font-family="Arial" font-size="13px" font-style="normal" font-weight="bold" text-decoration="undefined" x="203.285888671875" y="404.5" text-anchor="middle" dominant-baseline="central" transform="matrix(1 0 0 1 -142 -38)">Utilisateur</text></g></g><g><path fill="#ffffff" stroke="none" paint-order="stroke fill markers" d=" M 52.38998046875 99.85 C 52.38998046875 94.96227952000001 56.347782836749985 91 61.22998046875 91 C 66.11217810075001 91 70.06998046875 94.96227952000001 70.06998046875 99.85 C 70.06998046875 104.73772047999998 66.11217810075001 108.69999999999999 61.22998046875 108.69999999999999 C 56.347782836749985 108.69999999999999 52.38998046875 104.73772047999998 52.38998046875 99.85 Z"/></g><g><path fill="none" stroke="#000000" paint-order="fill stroke markers" d=" M 52.38998046875 99.85 C 52.38998046875 94.96227952000001 56.347782836749985 91 61.22998046875 91 C 66.11217810075001 91 70.06998046875 94.96227952000001 70.06998046875 99.85 C 70.06998046875 104.73772047999998 66.11217810075001 108.69999999999999 61.22998046875 108.69999999999999 C 56.347782836749985 108.69999999999999 52.38998046875 104.73772047999998 52.38998046875 99.85 Z" stroke-miterlimit="10" stroke-dasharray=""/></g><g><path fill="none" stroke="#000000" paint-order="fill stroke markers" d=" M 61.22998046875 108.69999999999999 L 61.22998046875 126.30000000000001" stroke-miterlimit="10" stroke-dasharray=""/></g><g><path fill="none" stroke="#000000" paint-order="fill stroke markers" d=" M 51.869980468749986 115.30000000000001 L 70.58998046875001 115.30000000000001" stroke-miterlimit="10" stroke-dasharray=""/></g><g><path fill="none" stroke="#000000" paint-order="fill stroke markers" d=" M 61.22998046875 126.30000000000001 L 48.22998046875 144" stroke-miterlimit="10" stroke-dasharray=""/></g><g><path fill="none" stroke="#000000" paint-order="fill stroke markers" d=" M 61.22998046875 126.30000000000001 L 74.22998046875 144" stroke-miterlimit="10" stroke-dasharray=""/></g><g><g><path fill="none" stroke="none"/><text fill="#000000" stroke="none" font-family="Arial" font-size="13px" font-style="normal" font-weight="bold" text-decoration="undefined" x="203.72998046875" y="196.5" text-anchor="middle" dominant-baseline="central" transform="matrix(1 0 0 1 -142 -38)">Administrateur</text></g></g><g><path fill="#C0C0C0" stroke="none" paint-order="stroke fill markers" d=" M 185 327.5 C 185 310.6553136 219.0263552 297 261 297 C 302.9736448 297 337 310.6553136 337 327.5 C 337 344.3446864 302.9736448 358 261 358 C 219.0263552 358 185 344.3446864 185 327.5 Z" fill-opacity="0.2"/></g><g><path fill="#D16800" stroke="none" paint-order="stroke fill markers" d=" M 178 320.5 C 178 303.6553136 212.0263552 290 254 290 C 295.9736448 290 330 303.6553136 330 320.5 C 330 337.3446864 295.9736448 351 254 351 C 212.0263552 351 178 337.3446864 178 320.5 Z"/></g><g><path fill="none" stroke="#000000" paint-order="fill stroke markers" d=" M 178 320.5 C 178 303.6553136 212.0263552 290 254 290 C 295.9736448 290 330 303.6553136 330 320.5 C 330 337.3446864 295.9736448 351 254 351 C 212.0263552 351 178 337.3446864 178 320.5 Z" stroke-miterlimit="10" stroke-dasharray=""/></g><g><g><path fill="none" stroke="none"/><text fill="#FFFFFF" stroke="none" font-family="Arial" font-size="13px" font-style="normal" font-weight="bold" text-decoration="undefined" x="396" y="353" text-anchor="middle" dominant-baseline="central" transform="matrix(1 0 0 1 -142 -38)">Demande de</text><text fill="#FFFFFF" stroke="none" font-family="Arial" font-size="13px" font-style="normal" font-weight="bold" text-decoration="undefined" x="396" y="366" text-anchor="middle" dominant-baseline="central" transform="matrix(1 0 0 1 -142 -38)">prédiction</text></g></g><g><path fill="#C0C0C0" stroke="none" paint-order="stroke fill markers" d=" M 393 327.5 C 393 310.6553136 425.2354944 297 465 297 C 504.7645056 297 537 310.6553136 537 327.5 C 537 344.3446864 504.7645056 358 465 358 C 425.2354944 358 393 344.3446864 393 327.5 Z" fill-opacity="0.2"/></g><g><path fill="#D16800" stroke="none" paint-order="stroke fill markers" d=" M 386 320.5 C 386 303.6553136 418.2354944 290 458 290 C 497.7645056 290 530 303.6553136 530 320.5 C 530 337.3446864 497.7645056 351 458 351 C 418.2354944 351 386 337.3446864 386 320.5 Z"/></g><g><path fill="none" stroke="#000000" paint-order="fill stroke markers" d=" M 386 320.5 C 386 303.6553136 418.2354944 290 458 290 C 497.7645056 290 530 303.6553136 530 320.5 C 530 337.3446864 497.7645056 351 458 351 C 418.2354944 351 386 337.3446864 386 320.5 Z" stroke-miterlimit="10" stroke-dasharray=""/></g><g><g><path fill="none" stroke="none"/><text fill="#FFFFFF" stroke="none" font-family="Arial" font-size="13px" font-style="normal" font-weight="bold" text-decoration="undefined" x="600" y="353" text-anchor="middle" dominant-baseline="central" transform="matrix(1 0 0 1 -142 -38)">Demdande</text><text fill="#FFFFFF" stroke="none" font-family="Arial" font-size="13px" font-style="normal" font-weight="bold" text-decoration="undefined" x="600" y="366" text-anchor="middle" dominant-baseline="central" transform="matrix(1 0 0 1 -142 -38)">d'estimation</text></g></g><g><path fill="#C0C0C0" stroke="none" paint-order="stroke fill markers" d=" M 393 562.5 C 393 543.9984592 422.101488 529 458 529 C 493.898512 529 523 543.9984592 523 562.5 C 523 581.0015408 493.898512 596 458 596 C 422.101488 596 393 581.0015408 393 562.5 Z" fill-opacity="0.2"/></g><g><path fill="#E2E2E2" stroke="none" paint-order="stroke fill markers" d=" M 386 555.5 C 386 536.9984592 415.101488 522 451 522 C 486.898512 522 516 536.9984592 516 555.5 C 516 574.0015408 486.898512 589 451 589 C 415.101488 589 386 574.0015408 386 555.5 Z"/></g><g><path fill="none" stroke="#000000" paint-order="fill stroke markers" d=" M 386 555.5 C 386 536.9984592 415.101488 522 451 522 C 486.898512 522 516 536.9984592 516 555.5 C 516 574.0015408 486.898512 589 451 589 C 415.101488 589 386 574.0015408 386 555.5 Z" stroke-miterlimit="10" stroke-dasharray=""/></g><g><g><path fill="none" stroke="none"/><text fill="#000000" stroke="none" font-family="Arial" font-size="13px" font-style="normal" font-weight="bold" text-decoration="undefined" x="593" y="594.5" text-anchor="middle" dominant-baseline="central" transform="matrix(1 0 0 1 -142 -38)">S'authentifier</text></g></g><g><path fill="#C0C0C0" stroke="none" paint-order="stroke fill markers" d=" M 217 474.5 C 217 464.835016 239.8334752 457 268 457 C 296.1665248 457 319 464.835016 319 474.5 C 319 484.164984 296.1665248 492 268 492 C 239.8334752 492 217 484.164984 217 474.5 Z" fill-opacity="0.2"/></g><g><path fill="#E2E2E2" stroke="none" paint-order="stroke fill markers" d=" M 210 467.5 C 210 457.835016 232.8334752 450 261 450 C 289.1665248 450 312 457.835016 312 467.5 C 312 477.164984 289.1665248 485 261 485 C 232.8334752 485 210 477.164984 210 467.5 Z"/></g><g><path fill="none" stroke="#000000" paint-order="fill stroke markers" d=" M 210 467.5 C 210 457.835016 232.8334752 450 261 450 C 289.1665248 450 312 457.835016 312 467.5 C 312 477.164984 289.1665248 485 261 485 C 232.8334752 485 210 477.164984 210 467.5 Z" stroke-miterlimit="10" stroke-dasharray=""/></g><g><g><path fill="none" stroke="none"/><text fill="#000000" stroke="none" font-family="Arial" font-size="13px" font-style="normal" font-weight="bold" text-decoration="undefined" x="403" y="506.5" text-anchor="middle" dominant-baseline="central" transform="matrix(1 0 0 1 -142 -38)">S'inscrire</text></g></g><g><path fill="#C0C0C0" stroke="none" paint-order="stroke fill markers" d=" M 601 565 C 601 545.1177472 636.817216 529 681 529 C 725.182784 529 761 545.1177472 761 565 C 761 584.8822528 725.182784 601 681 601 C 636.817216 601 601 584.8822528 601 565 Z" fill-opacity="0.2"/></g><g><path fill="#E2E2E2" stroke="none" paint-order="stroke fill markers" d=" M 594 558 C 594 538.1177472 629.817216 522 674 522 C 718.182784 522 754 538.1177472 754 558 C 754 577.8822528 718.182784 594 674 594 C 629.817216 594 594 577.8822528 594 558 Z"/></g><g><path fill="none" stroke="#000000" paint-order="fill stroke markers" d=" M 594 558 C 594 538.1177472 629.817216 522 674 522 C 718.182784 522 754 538.1177472 754 558 C 754 577.8822528 718.182784 594 674 594 C 629.817216 594 594 577.8822528 594 558 Z" stroke-miterlimit="10" stroke-dasharray=""/></g><g><g><path fill="none" stroke="none"/><text fill="#000000" stroke="none" font-family="Arial" font-size="13px" font-style="normal" font-weight="bold" text-decoration="undefined" x="816" y="584" text-anchor="middle" dominant-baseline="central" transform="matrix(1 0 0 1 -142 -38)">Réinitialisation</text><text fill="#000000" stroke="none" font-family="Arial" font-size="13px" font-style="normal" font-weight="bold" text-decoration="undefined" x="816" y="597" text-anchor="middle" dominant-baseline="central" transform="matrix(1 0 0 1 -142 -38)">du mot de passe</text><text fill="#000000" stroke="none" font-family="Arial" font-size="13px" font-style="normal" font-weight="bold" text-decoration="undefined" x="816" y="610" text-anchor="middle" dominant-baseline="central" transform="matrix(1 0 0 1 -142 -38)">oublié</text></g></g><g><path fill="#C0C0C0" stroke="none" paint-order="stroke fill markers" d=" M 225 131.5 C 225 116.86445280000001 259.0263552 105 301 105 C 342.9736448 105 377 116.86445280000001 377 131.5 C 377 146.1355472 342.9736448 158 301 158 C 259.0263552 158 225 146.1355472 225 131.5 Z" fill-opacity="0.2"/></g><g><path fill="#59B200" stroke="none" paint-order="stroke fill markers" d=" M 218 124.5 C 218 109.86445280000001 252.0263552 98 294 98 C 335.9736448 98 370 109.86445280000001 370 124.5 C 370 139.1355472 335.9736448 151 294 151 C 252.0263552 151 218 139.1355472 218 124.5 Z"/></g><g><path fill="none" stroke="#000000" paint-order="fill stroke markers" d=" M 218 124.5 C 218 109.86445280000001 252.0263552 98 294 98 C 335.9736448 98 370 109.86445280000001 370 124.5 C 370 139.1355472 335.9736448 151 294 151 C 252.0263552 151 218 139.1355472 218 124.5 Z" stroke-miterlimit="10" stroke-dasharray=""/></g><g><g><path fill="none" stroke="none"/><text fill="#FFFFFF" stroke="none" font-family="Arial" font-size="13px" font-style="normal" font-weight="bold" text-decoration="undefined" x="436" y="157" text-anchor="middle" dominant-baseline="central" transform="matrix(1 0 0 1 -142 -38)">Afficher les</text><text fill="#FFFFFF" stroke="none" font-family="Arial" font-size="13px" font-style="normal" font-weight="bold" text-decoration="undefined" x="436" y="170" text-anchor="middle" dominant-baseline="central" transform="matrix(1 0 0 1 -142 -38)">utilisateurs</text></g></g><g><path fill="none" stroke="#000000" paint-order="fill stroke markers" d=" M 60 506 L 60 378" stroke-miterlimit="10" stroke-dasharray=""/></g><g><path fill="#FFFFFF" stroke="none" paint-order="stroke fill markers" d=" M 68.41903551203197 398.3253497152483 L 60 378 L 51.58096448796803 398.3253497152483"/></g><g><path fill="none" stroke="#000000" paint-order="fill stroke markers" d=" M 68.41903551203197 398.3253497152483 L 60 378 L 51.58096448796803 398.3253497152483 L 68.41903551203197 398.3253497152483" stroke-miterlimit="10" stroke-dasharray=""/></g><g><path fill="none" stroke="#000000" paint-order="fill stroke markers" d=" M 61 298 L 61 170" stroke-miterlimit="10" stroke-dasharray=""/></g><g><path fill="#FFFFFF" stroke="none" paint-order="stroke fill markers" d=" M 69.41903551203197 190.3253497152483 L 61 170 L 52.58096448796803 190.3253497152483"/></g><g><path fill="none" stroke="#000000" paint-order="fill stroke markers" d=" M 69.41903551203197 190.3253497152483 L 61 170 L 52.58096448796803 190.3253497152483 L 69.41903551203197 190.3253497152483" stroke-miterlimit="10" stroke-dasharray=""/></g><g><path fill="#C0C0C0" stroke="none" paint-order="stroke fill markers" d=" M 453 83.5 C 453 68.8644528 483.4446336 57 521 57 C 558.5553664 57 589 68.8644528 589 83.5 C 589 98.13554719999999 558.5553664 110 521 110 C 483.4446336 110 453 98.13554719999999 453 83.5 Z" fill-opacity="0.2"/></g><g><path fill="#59B200" stroke="none" paint-order="stroke fill markers" d=" M 446 76.5 C 446 61.864452799999995 476.4446336 50 514 50 C 551.5553664 50 582 61.864452799999995 582 76.5 C 582 91.13554719999999 551.5553664 103 514 103 C 476.4446336 103 446 91.13554719999999 446 76.5 Z"/></g><g><path fill="none" stroke="#000000" paint-order="fill stroke markers" d=" M 446 76.5 C 446 61.864452799999995 476.4446336 50 514 50 C 551.5553664 50 582 61.864452799999995 582 76.5 C 582 91.13554719999999 551.5553664 103 514 103 C 476.4446336 103 446 91.13554719999999 446 76.5 Z" stroke-miterlimit="10" stroke-dasharray=""/></g><g><g><path fill="none" stroke="none"/><text fill="#FFFFFF" stroke="none" font-family="Arial" font-size="13px" font-style="normal" font-weight="bold" text-decoration="undefined" x="656" y="109" text-anchor="middle" dominant-baseline="central" transform="matrix(1 0 0 1 -142 -38)">Supprimer un</text><text fill="#FFFFFF" stroke="none" font-family="Arial" font-size="13px" font-style="normal" font-weight="bold" text-decoration="undefined" x="656" y="122" text-anchor="middle" dominant-baseline="central" transform="matrix(1 0 0 1 -142 -38)">utilisateur</text></g></g><g><path fill="#C0C0C0" stroke="none" paint-order="stroke fill markers" d=" M 453 187.5 C 453 172.8644528 483.4446336 161 521 161 C 558.5553664 161 589 172.8644528 589 187.5 C 589 202.1355472 558.5553664 214 521 214 C 483.4446336 214 453 202.1355472 453 187.5 Z" fill-opacity="0.2"/></g><g><path fill="#59B200" stroke="none" paint-order="stroke fill markers" d=" M 446 180.5 C 446 165.8644528 476.4446336 154 514 154 C 551.5553664 154 582 165.8644528 582 180.5 C 582 195.1355472 551.5553664 207 514 207 C 476.4446336 207 446 195.1355472 446 180.5 Z"/></g><g><path fill="none" stroke="#000000" paint-order="fill stroke markers" d=" M 446 180.5 C 446 165.8644528 476.4446336 154 514 154 C 551.5553664 154 582 165.8644528 582 180.5 C 582 195.1355472 551.5553664 207 514 207 C 476.4446336 207 446 195.1355472 446 180.5 Z" stroke-miterlimit="10" stroke-dasharray=""/></g><g><g><path fill="none" stroke="none"/><text fill="#FFFFFF" stroke="none" font-family="Arial" font-size="13px" font-style="normal" font-weight="bold" text-decoration="undefined" x="656" y="213" text-anchor="middle" dominant-baseline="central" transform="matrix(1 0 0 1 -142 -38)">Afficher un</text><text fill="#FFFFFF" stroke="none" font-family="Arial" font-size="13px" font-style="normal" font-weight="bold" text-decoration="undefined" x="656" y="226" text-anchor="middle" dominant-baseline="central" transform="matrix(1 0 0 1 -142 -38)">utilisateur</text></g></g><g><path fill="none" stroke="#000000" paint-order="fill stroke markers" d=" M 112 129 L 218 129" stroke-miterlimit="10" stroke-dasharray=""/></g><g><path fill="none" stroke="#000000" paint-order="fill stroke markers" d=" M 89 522 L 186 522 L 186 466 L 210 466" stroke-miterlimit="10" stroke-dasharray=""/></g><g><path fill="none" stroke="#000000" paint-order="fill stroke markers" d=" M 98 322 L 178 322" stroke-miterlimit="10" stroke-dasharray=""/></g><g><path fill="none" stroke="#000000" paint-order="fill stroke markers" d=" M 594 570 L 516 570" stroke-miterlimit="10" stroke-dasharray="3"/></g><g><path fill="none" stroke="#000000" paint-order="fill stroke markers" d=" M 526.1626748576241 565.790482243984 L 516 570 L 526.1626748576241 574.209517756016" stroke-miterlimit="10" stroke-dasharray=""/></g><g><rect fill="#ffffff" stroke="none" x="680" y="615" width="53.49169921875" height="13" transform="matrix(1 0 0 1 -142 -38)"/></g><g><g><path fill="none" stroke="none"/><text fill="#000000" stroke="none" font-family="Arial" font-size="13px" font-style="normal" font-weight="normal" text-decoration="undefined" x="706.745849609375" y="621.5" text-anchor="middle" dominant-baseline="central" transform="matrix(1 0 0 1 -142 -38)">«extend»</text></g></g><g><path fill="none" stroke="#000000" paint-order="fill stroke markers" d=" M 516 546 L 594 546" stroke-miterlimit="10" stroke-dasharray="3"/></g><g><path fill="none" stroke="#000000" paint-order="fill stroke markers" d=" M 583.8373251423759 550.209517756016 L 594 546 L 583.8373251423758 541.790482243984" stroke-miterlimit="10" stroke-dasharray=""/></g><g><rect fill="#ffffff" stroke="none" x="672" y="560" width="53.49169921875" height="13" transform="matrix(1 0 0 1 -142 -38)"/></g><g><g><path fill="none" stroke="none"/><text fill="#000000" stroke="none" font-family="Arial" font-size="13px" font-style="normal" font-weight="normal" text-decoration="undefined" x="698.745849609375" y="566.5" text-anchor="middle" dominant-baseline="central" transform="matrix(1 0 0 1 -142 -38)">«extend»</text></g></g><g><path fill="none" stroke="#000000" paint-order="fill stroke markers" d=" M 300 485 L 300 538 L 386 538" stroke-miterlimit="10" stroke-dasharray="3"/></g><g><path fill="none" stroke="#000000" paint-order="fill stroke markers" d=" M 375.8373251423759 542.209517756016 L 386 538 L 375.8373251423758 533.790482243984" stroke-miterlimit="10" stroke-dasharray=""/></g><g><rect fill="#ffffff" stroke="none" x="456" y="552" width="53.49169921875" height="13" transform="matrix(1 0 0 1 -142 -38)"/></g><g><g><path fill="none" stroke="none"/><text fill="#000000" stroke="none" font-family="Arial" font-size="13px" font-style="normal" font-weight="normal" text-decoration="undefined" x="482.745849609375" y="558.5" text-anchor="middle" dominant-baseline="central" transform="matrix(1 0 0 1 -142 -38)">«extend»</text></g></g><g><path fill="none" stroke="#000000" paint-order="fill stroke markers" d=" M 386 562 L 282 562 L 282 485" stroke-miterlimit="10" stroke-dasharray="3"/></g><g><path fill="none" stroke="#000000" paint-order="fill stroke markers" d=" M 286.209517756016 495.1626748576241 L 282 485 L 277.790482243984 495.1626748576241" stroke-miterlimit="10" stroke-dasharray=""/></g><g><rect fill="#ffffff" stroke="none" x="456" y="607" width="53.49169921875" height="13" transform="matrix(1 0 0 1 -142 -38)"/></g><g><g><path fill="none" stroke="none"/><text fill="#000000" stroke="none" font-family="Arial" font-size="13px" font-style="normal" font-weight="normal" text-decoration="undefined" x="482.745849609375" y="613.5" text-anchor="middle" dominant-baseline="central" transform="matrix(1 0 0 1 -142 -38)">«extend»</text></g></g><g><path fill="#C0C0C0" stroke="none" paint-order="stroke fill markers" d=" M 705 451.5 C 705 436.8644528 746.1897984 425 797 425 C 847.8102016 425 889 436.8644528 889 451.5 C 889 466.1355472 847.8102016 478 797 478 C 746.1897984 478 705 466.1355472 705 451.5 Z" fill-opacity="0.2"/></g><g><path fill="#E2E2E2" stroke="none" paint-order="stroke fill markers" d=" M 698 444.5 C 698 429.8644528 739.1897984 418 790 418 C 840.8102016 418 882 429.8644528 882 444.5 C 882 459.1355472 840.8102016 471 790 471 C 739.1897984 471 698 459.1355472 698 444.5 Z"/></g><g><path fill="none" stroke="#000000" paint-order="fill stroke markers" d=" M 698 444.5 C 698 429.8644528 739.1897984 418 790 418 C 840.8102016 418 882 429.8644528 882 444.5 C 882 459.1355472 840.8102016 471 790 471 C 739.1897984 471 698 459.1355472 698 444.5 Z" stroke-miterlimit="10" stroke-dasharray=""/></g><g><g><path fill="none" stroke="none"/><text fill="#000000" stroke="none" font-family="Arial" font-size="13px" font-style="normal" font-weight="bold" text-decoration="undefined" x="932" y="477" text-anchor="middle" dominant-baseline="central" transform="matrix(1 0 0 1 -142 -38)">Envoie du mail de</text><text fill="#000000" stroke="none" font-family="Arial" font-size="13px" font-style="normal" font-weight="bold" text-decoration="undefined" x="932" y="490" text-anchor="middle" dominant-baseline="central" transform="matrix(1 0 0 1 -142 -38)">réinitialisation</text></g></g><g><path fill="none" stroke="#000000" paint-order="fill stroke markers" d=" M 754 554 L 793 554 L 793 471" stroke-miterlimit="10" stroke-dasharray="3"/></g><g><path fill="none" stroke="#000000" paint-order="fill stroke markers" d=" M 797.209517756016 481.1626748576241 L 793 471 L 788.790482243984 481.1626748576241" stroke-miterlimit="10" stroke-dasharray=""/></g><g><rect fill="#ffffff" stroke="none" x="944" y="528" width="55.65625" height="13" transform="matrix(1 0 0 1 -142 -38)"/></g><g><g><path fill="none" stroke="none"/><text fill="#000000" stroke="none" font-family="Arial" font-size="13px" font-style="normal" font-weight="normal" text-decoration="undefined" x="971.828125" y="534.5" text-anchor="middle" dominant-baseline="central" transform="matrix(1 0 0 1 -142 -38)">«include»</text></g></g><g><path fill="none" stroke="#000000" paint-order="fill stroke markers" d=" M 370 98 L 370 74 L 446 74" stroke-miterlimit="10" stroke-dasharray="3"/></g><g><path fill="none" stroke="#000000" paint-order="fill stroke markers" d=" M 435.8373251423759 78.20951775601598 L 446 74 L 435.8373251423758 69.79048224398402" stroke-miterlimit="10" stroke-dasharray=""/></g><g><rect fill="#ffffff" stroke="none" x="528" y="88" width="53.49169921875" height="13" transform="matrix(1 0 0 1 -142 -38)"/></g><g><g><path fill="none" stroke="none"/><text fill="#000000" stroke="none" font-family="Arial" font-size="13px" font-style="normal" font-weight="normal" text-decoration="undefined" x="554.745849609375" y="94.5" text-anchor="middle" dominant-baseline="central" transform="matrix(1 0 0 1 -142 -38)">«extend»</text></g></g><g><path fill="none" stroke="#000000" paint-order="fill stroke markers" d=" M 370 151 L 370 178 L 446 178" stroke-miterlimit="10" stroke-dasharray="3"/></g><g><path fill="none" stroke="#000000" paint-order="fill stroke markers" d=" M 435.8373251423759 182.209517756016 L 446 178 L 435.8373251423758 173.790482243984" stroke-miterlimit="10" stroke-dasharray=""/></g><g><rect fill="#ffffff" stroke="none" x="520" y="192" width="53.49169921875" height="13" transform="matrix(1 0 0 1 -142 -38)"/></g><g><g><path fill="none" stroke="none"/><text fill="#000000" stroke="none" font-family="Arial" font-size="13px" font-style="normal" font-weight="normal" text-decoration="undefined" x="546.745849609375" y="198.5" text-anchor="middle" dominant-baseline="central" transform="matrix(1 0 0 1 -142 -38)">«extend»</text></g></g><g><path fill="#C0C0C0" stroke="none" paint-order="stroke fill markers" d=" M 617 261 C 617 241.1177472 659.9806592 225 713 225 C 766.0193408 225 809 241.1177472 809 261 C 809 280.8822528 766.0193408 297 713 297 C 659.9806592 297 617 280.8822528 617 261 Z" fill-opacity="0.2"/></g><g><path fill="#D16800" stroke="none" paint-order="stroke fill markers" d=" M 610 254 C 610 234.1177472 652.9806592 218 706 218 C 759.0193408 218 802 234.1177472 802 254 C 802 273.8822528 759.0193408 290 706 290 C 652.9806592 290 610 273.8822528 610 254 Z"/></g><g><path fill="none" stroke="#000000" paint-order="fill stroke markers" d=" M 610 254 C 610 234.1177472 652.9806592 218 706 218 C 759.0193408 218 802 234.1177472 802 254 C 802 273.8822528 759.0193408 290 706 290 C 652.9806592 290 610 273.8822528 610 254 Z" stroke-miterlimit="10" stroke-dasharray=""/></g><g><g><path fill="none" stroke="none"/><text fill="#FFFFFF" stroke="none" font-family="Arial" font-size="13px" font-style="normal" font-weight="bold" text-decoration="undefined" x="848" y="280" text-anchor="middle" dominant-baseline="central" transform="matrix(1 0 0 1 -142 -38)">Afficher le nombre</text><text fill="#FFFFFF" stroke="none" font-family="Arial" font-size="13px" font-style="normal" font-weight="bold" text-decoration="undefined" x="848" y="293" text-anchor="middle" dominant-baseline="central" transform="matrix(1 0 0 1 -142 -38)">de demande</text><text fill="#FFFFFF" stroke="none" font-family="Arial" font-size="13px" font-style="normal" font-weight="bold" text-decoration="undefined" x="848" y="306" text-anchor="middle" dominant-baseline="central" transform="matrix(1 0 0 1 -142 -38)">restante</text></g></g><g><path fill="none" stroke="#000000" paint-order="fill stroke markers" d=" M 330 306 L 386 306" stroke-miterlimit="10" stroke-dasharray="3"/></g><g><path fill="none" stroke="#000000" paint-order="fill stroke markers" d=" M 375.8373251423759 310.209517756016 L 386 306 L 375.8373251423758 301.790482243984" stroke-miterlimit="10" stroke-dasharray=""/></g><g><rect fill="#ffffff" stroke="none" x="472" y="319" width="53.49169921875" height="13" transform="matrix(1 0 0 1 -142 -38)"/></g><g><g><path fill="none" stroke="none"/><text fill="#000000" stroke="none" font-family="Arial" font-size="13px" font-style="normal" font-weight="normal" text-decoration="undefined" x="498.745849609375" y="325.5" text-anchor="middle" dominant-baseline="central" transform="matrix(1 0 0 1 -142 -38)">«extend»</text></g></g><g><path fill="none" stroke="#000000" paint-order="fill stroke markers" d=" M 386 330 L 330 330" stroke-miterlimit="10" stroke-dasharray="3"/></g><g><path fill="none" stroke="#000000" paint-order="fill stroke markers" d=" M 340.16267485762415 325.790482243984 L 330 330 L 340.16267485762415 334.209517756016" stroke-miterlimit="10" stroke-dasharray=""/></g><g><rect fill="#ffffff" stroke="none" x="472" y="376" width="53.49169921875" height="13" transform="matrix(1 0 0 1 -142 -38)"/></g><g><g><path fill="none" stroke="none"/><text fill="#000000" stroke="none" font-family="Arial" font-size="13px" font-style="normal" font-weight="normal" text-decoration="undefined" x="498.745849609375" y="382.5" text-anchor="middle" dominant-baseline="central" transform="matrix(1 0 0 1 -142 -38)">«extend»</text></g></g><g><path fill="none" stroke="#000000" paint-order="fill stroke markers" d=" M 250 290 L 250 234 L 610 234" stroke-miterlimit="10" stroke-dasharray="3"/></g><g><path fill="none" stroke="#000000" paint-order="fill stroke markers" d=" M 599.8373251423759 238.209517756016 L 610 234 L 599.8373251423758 229.790482243984" stroke-miterlimit="10" stroke-dasharray=""/></g><g><rect fill="#ffffff" stroke="none" x="424" y="248" width="55.65625" height="13" transform="matrix(1 0 0 1 -142 -38)"/></g><g><g><path fill="none" stroke="none"/><text fill="#000000" stroke="none" font-family="Arial" font-size="13px" font-style="normal" font-weight="normal" text-decoration="undefined" x="451.828125" y="254.5" text-anchor="middle" dominant-baseline="central" transform="matrix(1 0 0 1 -142 -38)">«include»</text></g></g><g><path fill="none" stroke="#000000" paint-order="fill stroke markers" d=" M 458 290 L 458 266 L 610 266" stroke-miterlimit="10" stroke-dasharray="3"/></g><g><path fill="none" stroke="#000000" paint-order="fill stroke markers" d=" M 599.8373251423759 270.209517756016 L 610 266 L 599.8373251423758 261.790482243984" stroke-miterlimit="10" stroke-dasharray=""/></g><g><rect fill="#ffffff" stroke="none" x="648" y="311" width="55.65625" height="13" transform="matrix(1 0 0 1 -142 -38)"/></g><g><g><path fill="none" stroke="none"/><text fill="#000000" stroke="none" font-family="Arial" font-size="13px" font-style="normal" font-weight="normal" text-decoration="undefined" x="675.828125" y="317.5" text-anchor="middle" dominant-baseline="central" transform="matrix(1 0 0 1 -142 -38)">«include»</text></g></g></g></svg>